# xmcd CD database file generated by Grip 2.94
# 
# Track frame offsets:
#       150
#       19089
#       38262
#       56749
#       86036
#       102609
#       121228
#       144074
#       168004
# 
# Disc length: 2493 seconds
# 
# Revision: 3
# Processed by: cddbd v1.4PL0 Copyright (c) Steve Scherf et al.
# Submitted via: Grip 2.94
# 
DISCID=6609bb09
DTITLE=Craig Schumacher - Live At Creation
DYEAR=1900
DGENRE=
TTITLE0=For A Little While
TTITLE1=She Love Me, Love Me Not
TTITLE2=Hard In Paridise
TTITLE3=I'm Wide Open
TTITLE4=Lullaby For John
TTITLE5=Find Some Hope
TTITLE6=Day The Dogbush Bloomed
TTITLE7=Time Of The Season
TTITLE8=It's Your World
EXTD=
EXTT0=
EXTT1=
EXTT2=
EXTT3=
EXTT4=
EXTT5=
EXTT6=
EXTT7=
EXTT8=
PLAYORDER=
